<?xml version="1.0" encoding="UTF-8"?>
<svg version="1.1" xmlns="http://www.w3.org/2000/svg" width="1000" height="1000">
<path d="M0 0 C46.92784771 -0.59340516 46.92784771 -0.59340516 66.94915771 2.68377686 C80.94486002 4.82775639 94.45221267 4.08084705 108.41326904 2.29046631 C113.05013971 1.69764067 117.64881577 1.27237868 122.31903076 1.04681396 C123.110354 1.00749756 123.90167725 0.96818115 124.71697998 0.92767334 C136.88600174 0.40674297 148.18315533 1.1358337 160.13153076 3.54681396 C177.36988963 6.97539168 195.03626713 8.39168619 212.10955811 3.47747803 C219.60725896 1.42880529 227.02830846 1.81141241 234.74090576 1.97259521 C240.14233765 2.08269409 245.49032069 1.86518643 250.88153076 1.54681396 C258.37773291 1.11551554 265.80875569 0.94975434 273.31903076 1.04681396 C274.42087099 12.99130277 274.85965951 24.93298482 275.22381592 36.91937256 C275.28146948 38.81307029 275.34262866 40.70667182 275.41033936 42.60003662 C275.65617322 49.70729728 275.5652074 55.55349639 272.92840576 62.19525146 C271.67545964 66.00228005 272.9956816 69.19681137 274.36199951 72.78851318 C275.41594632 76.37677188 275.51676503 79.25893931 275.44403076 82.99212646 C275.4326709 83.9688179 275.4326709 83.9688179 275.42108154 84.96524048 C275.38882044 87.71932652 275.33298468 90.47278917 275.27801514 93.22650146 C275.24114327 95.25251328 275.21739155 97.27842015 275.19403076 99.30462646 C275.15922607 101.10117676 275.15922607 101.10117676 275.12371826 102.934021 C275.17664014 106.21644122 275.6989746 109.28289381 276.3102417 112.50604248 C277.651856 120.13437149 277.608542 127.72525928 277.58465576 135.44134521 C277.58600773 137.00251831 277.58795265 138.56369099 277.5904541 140.12486267 C277.59338301 143.3798935 277.58918213 146.6348137 277.57977295 149.88983154 C277.56840848 154.0178734 277.57493313 158.1456542 277.58691788 162.27368641 C277.59422188 165.49374783 277.59180939 168.71374966 277.58666229 171.9338131 C277.58534777 173.45372233 277.58689438 174.97363736 277.5916214 176.49353981 C277.61318256 185.37465013 277.13501277 193.93388008 275.80555725 202.72079468 C275.03395543 207.99566173 274.65360791 213.29538589 274.25653076 218.60931396 C273.4405184 229.35235269 273.4405184 229.35235269 272.76824951 233.19525146 C272.14079721 237.17820958 272.17286692 241.0832705 272.19403076 245.10931396 C272.19693115 246.53110962 272.19693115 246.53110962 272.19989014 247.98162842 C272.24168606 255.39982497 272.44796066 262.81002618 272.67962646 270.22406006 C273.16813939 285.90581841 273.45197745 301.58161844 273.49627686 317.27133179 C273.50289909 319.34635876 273.51291084 321.42137896 273.52703857 323.49636841 C273.61219413 337.0513686 273.1273938 350.51940264 272.35028076 364.04681396 C271.23039351 383.64236391 270.84155852 403.21491287 270.65803146 422.8393898 C270.63093787 425.67128457 270.60079395 428.50313425 270.57003784 431.33499146 C270.25211313 461.15928286 270.42670857 490.95712407 270.90765381 520.77801514 C270.95794351 523.90797302 271.00784121 527.03793678 271.05731201 530.16790771 C271.07564244 531.3241694 271.07564244 531.3241694 271.09434319 532.5037899 C273.00813013 655.15815003 273.00813013 655.15815003 267.79168701 706.51556396 C267.04807302 714.25438823 266.94009612 722.02874786 266.75653076 729.79681396 C266.7356842 730.64498688 266.71483765 731.49315979 266.69335938 732.36703491 C266.33401496 747.32210376 266.21191025 762.27523885 266.19403076 777.23431396 C266.19144257 778.23305542 266.18885437 779.23179687 266.18618774 780.26080322 C266.18027551 783.14133923 266.18073945 786.02174681 266.18621826 788.90228271 C266.18855217 790.24602463 266.18855217 790.24602463 266.19093323 791.61691284 C266.2323392 797.70006574 266.61432604 803.63940518 267.39764404 809.67694092 C267.31903076 812.04681396 267.31903076 812.04681396 265.96893311 813.82244873 C263.96978195 815.30598573 262.20716766 815.96622806 259.81903076 816.67181396 C259.04559326 816.91157959 258.27215576 817.15134521 257.47528076 817.39837646 C238.77895719 821.23945284 218.46842253 820.14978188 199.43444824 820.27798462 C197.83890039 820.29035865 196.24338199 820.30772512 194.64794922 820.33053589 C185.70605836 820.45039563 177.55690938 820.07214178 168.83392334 817.79193115 C158.90479207 815.68706843 148.66272287 815.8261006 138.55428314 815.63182259 C135.93858397 815.58095266 133.32306491 815.52432956 130.70751953 815.46611023 C123.27936313 815.30140928 115.85107986 815.14399822 108.42254639 814.99725342 C103.85797334 814.90668137 99.29366789 814.80713473 94.72940826 814.70199394 C92.99921039 814.66391193 91.268934 814.62923195 89.53859711 814.59810066 C87.11976525 814.55436202 84.70143349 814.49920847 82.28289795 814.44158936 C81.22448196 814.42667953 81.22448196 814.42667953 80.14468384 814.41146851 C75.57350817 814.28717411 71.68048553 813.35848273 67.31903076 812.04681396 C64.69797407 811.70334453 64.69797407 811.70334453 62.15325928 811.65203857 C61.19859268 811.61537582 60.24392609 811.57871307 59.2603302 811.54093933 C58.24974045 811.5106514 57.2391507 811.48036346 56.19793701 811.44915771 C54.60984474 811.39037193 54.60984474 811.39037193 52.9896698 811.33039856 C49.62052257 811.20687273 46.25112471 811.09492282 42.88153076 810.98431396 C39.51560546 810.86834734 36.14980318 810.74985692 32.78410339 810.6275177 C30.6951059 810.55214595 28.60596266 810.48067804 26.51667786 810.41374207 C22.36191612 810.26838209 18.26102023 810.09176691 14.13909912 809.53533936 C10.05115567 809.01255704 6.05880021 808.84303197 1.94403076 808.76556396 C1.17526611 808.74715454 0.40650146 808.72874512 -0.38555908 808.70977783 C-2.81729293 808.65163841 -5.24909162 808.59856633 -7.68096924 808.54681396 C-10.88942981 808.47853527 -14.0977032 808.40489155 -17.30596924 808.32806396 C-18.02703857 808.31448853 -18.74810791 808.30091309 -19.49102783 808.28692627 C-23.59210845 808.18818245 -27.5610485 807.82335848 -31.63272095 807.27511597 C-35.34553814 806.86127766 -39.06164842 806.84349068 -42.79425049 806.80853271 C-44.1000985 806.79418182 -44.1000985 806.79418182 -45.43232727 806.77954102 C-48.28607833 806.75480829 -51.13962384 806.74235389 -53.99346924 806.73431396 C-54.97994446 806.73069855 -55.96641968 806.72708313 -56.98278809 806.72335815 C-73.59733354 806.69916205 -89.91549104 807.81457335 -106.42901611 809.54681396 C-119.6557278 810.92803282 -132.74721158 811.61994854 -146.04425049 811.87103271 C-150.54157011 811.95730433 -154.9907729 812.20215582 -159.47393799 812.56634521 C-176.44819884 813.84762057 -193.60107623 812.87235718 -210.59820557 812.47406006 C-238.84375393 811.7907506 -238.84375393 811.7907506 -267.05596924 812.98431396 C-268.91995361 813.11483154 -268.91995361 813.11483154 -270.82159424 813.24798584 C-277.24119601 813.68562176 -277.24119601 813.68562176 -283.60797119 814.57049561 C-294.33655583 816.23343901 -305.62296143 814.92614583 -316.33450317 813.76397705 C-337.23473556 811.5324949 -358.009344 811.44420477 -378.98565674 812.81634521 C-382.30429082 813.02332134 -385.60661809 813.17669188 -388.93096924 813.23431396 C-389.71987549 813.24849365 -390.50878174 813.26267334 -391.32159424 813.27728271 C-393.68096924 813.04681396 -393.68096924 813.04681396 -396.23956299 812.03509521 C-402.24760819 810.30974285 -408.44719233 810.9714577 -414.65167236 811.12493896 C-415.67841064 811.14040771 -416.70514893 811.15587646 -417.76300049 811.17181396 C-418.68314941 811.19501709 -419.60329834 811.21822021 -420.55133057 811.24212646 C-423.18045954 811.07804946 -425.33391023 810.70193014 -427.87261963 810.08782959 C-433.07625395 808.86340515 -438.20526765 808.53862755 -443.53253174 808.26556396 C-444.54963226 808.20654907 -445.56673279 808.14753418 -446.61465454 808.08673096 C-449.84474358 807.89981288 -453.07524309 807.7223496 -456.30596924 807.54681396 C-487.33831065 805.84390543 -487.33831065 805.84390543 -501.49346924 802.85931396 C-507.2007165 801.76897419 -512.85701841 801.92885002 -518.46051025 803.56707764 C-521.16229856 804.1508065 -523.63559344 804.14135148 -526.39971924 804.10931396 C-527.49671143 804.10157959 -528.59370361 804.09384521 -529.72393799 804.08587646 C-532.02862549 804.0598348 -534.33331299 804.03379313 -536.63800049 804.00775146 C-537.73499268 804.00001709 -538.83198486 803.99228271 -539.96221924 803.98431396 C-540.96317627 803.9727124 -541.9641333 803.96111084 -542.99542236 803.94915771 C-545.41613511 804.03718363 -547.36441291 804.39688082 -549.68096924 805.04681396 C-551.59417502 805.18893782 -553.51272356 805.26699667 -555.43096924 805.29681396 C-556.41581299 805.32259521 -557.40065674 805.34837646 -558.41534424 805.37493896 C-562.53713352 804.96078789 -566.22220888 804.45282102 -569.68096924 802.04681396 C-571.07023504 799.38273678 -571.33709123 796.76269026 -571.61846924 793.79681396 C-571.71708252 793.05818115 -571.8156958 792.31954834 -571.91729736 791.55853271 C-572.10115386 790.15924905 -572.27035803 788.75789175 -572.41900635 787.35443115 C-572.62739066 785.51878481 -572.89774631 783.69019859 -573.18925476 781.86590576 C-573.67765484 778.0725565 -573.8079611 774.4566442 -573.81036377 770.63372803 C-573.81211609 769.92861084 -573.81386841 769.22349365 -573.81567383 768.49700928 C-573.82004426 766.18546016 -573.81717011 763.87398875 -573.81378174 761.56243896 C-573.81445646 759.93969712 -573.81542789 758.31695537 -573.81668091 756.69421387 C-573.81815164 753.29839106 -573.81602456 749.90259463 -573.81134033 746.5067749 C-573.8056617 742.18208828 -573.80891418 737.857464 -573.8149128 733.53277969 C-573.81855092 730.18163597 -573.81736467 726.83050668 -573.814785 723.47936249 C-573.81412375 721.88637026 -573.81491571 720.29337668 -573.81726456 718.70038605 C-573.82626531 710.87708821 -573.72970341 703.14172509 -572.9078064 695.35147095 C-572.59181582 692.14101858 -572.55131827 688.95494274 -572.54815674 685.73040771 C-572.54679214 685.08562973 -572.54542755 684.44085175 -572.54402161 683.77653503 C-572.54200624 681.67907477 -572.54834249 679.58175995 -572.55596924 677.48431396 C-572.55718781 676.74030334 -572.55840637 675.99629272 -572.55966187 675.22973633 C-572.5806718 664.11151467 -572.80705197 653.01048312 -573.18780518 641.89825439 C-573.53019768 631.81936823 -573.74369443 621.7441708 -573.86456299 611.66009521 C-574.24496407 580.51393781 -574.96903031 549.40076513 -576.07935333 518.27130508 C-576.1803288 515.43977286 -576.28037895 512.60820894 -576.38037109 509.77664185 C-576.53978163 505.28079418 -576.70278794 500.78509038 -576.86886215 496.28948402 C-576.92993892 494.63315522 -576.99038167 492.97680288 -577.05011368 491.32042503 C-577.36619025 482.60940049 -577.79876802 473.92990479 -578.45678711 465.23651123 C-578.79439628 460.43295688 -578.9600224 455.62881483 -579.11065674 450.81634521 C-579.18267263 448.71615199 -579.25511875 446.61597349 -579.32794189 444.51580811 C-579.36494202 443.43171661 -579.40194214 442.34762512 -579.44006348 441.23068237 C-580.01496567 424.50841552 -580.75265658 407.84120378 -582.10058594 391.16281128 C-583.50228414 373.7357245 -583.95615776 356.40553194 -583.93096924 338.92181396 C-583.93010315 337.79824493 -583.92923706 336.6746759 -583.92834473 335.51705933 C-583.92184585 332.27427007 -583.90564853 329.03172331 -583.88409424 325.78900146 C-583.87971344 324.8540535 -583.87533264 323.91910553 -583.87081909 322.95582581 C-583.812918 317.31791508 -583.55041512 311.71191345 -583.18585205 306.08636475 C-582.62144335 297.19573034 -582.48803561 288.3190195 -582.42060852 279.41244507 C-582.39912725 276.59414593 -582.37216168 273.77594184 -582.34393311 270.95770264 C-582.27500301 263.97311366 -582.21472741 256.98845623 -582.15490723 250.00378418 C-582.10375388 244.06200658 -582.04891863 238.12028566 -581.98908997 232.17858887 C-581.96277283 229.41739645 -581.941821 226.65619756 -581.92108154 223.8949585 C-581.904468 222.19166805 -581.88759524 220.48838011 -581.87042236 218.78509521 C-581.86623795 218.03064621 -581.86205353 217.2761972 -581.85774231 216.49888611 C-581.81510713 212.82060495 -581.62137618 209.23276829 -581.17799377 205.57981873 C-580.6246721 200.96730309 -580.53608933 196.4221869 -580.53912354 191.78045654 C-580.5339119 190.46088455 -580.5339119 190.46088455 -580.52859497 189.11465454 C-580.52128555 187.21597221 -580.51591476 185.3172816 -580.51230431 183.41858864 C-580.50504355 180.38091588 -580.48929954 177.34339601 -580.47096252 174.30577087 C-580.4189983 165.67186837 -580.37076957 157.03804655 -580.3550415 148.4039917 C-580.26676309 106.20964818 -580.26676309 106.20964818 -577.15480042 86.4122467 C-575.02259143 72.68006344 -574.83857912 58.91927307 -574.55596924 45.04681396 C-574.46756431 41.10144203 -574.37433618 37.15635798 -574.27035522 33.21136475 C-574.20726013 30.79199987 -574.15323892 28.37237497 -574.1098938 25.95257568 C-573.84936886 15.48567737 -573.84936886 15.48567737 -571.68096924 11.04681396 C-564.23492151 6.1391916 -555.82087944 6.96061636 -547.28839111 7.17376709 C-540.70405313 7.25901747 -534.92181211 6.19304131 -528.59259033 4.48236084 C-526.01967313 3.89614318 -523.62778074 4.03011244 -520.99346924 4.10931396 C-517.15846001 4.15115043 -513.7724785 3.99415946 -510.05596924 3.04681396 C-504.39264134 1.60785588 -498.49345959 1.02233761 -492.93177795 3.04823303 C-489.50155148 4.10192737 -486.79015456 4.29433759 -483.21099854 4.28973389 C-481.31193001 4.29434883 -481.31193001 4.29434883 -479.37449646 4.29905701 C-478.00139183 4.2921499 -476.62828896 4.28488224 -475.25518799 4.27728271 C-473.82475323 4.27608769 -472.39431768 4.27563843 -470.96388245 4.27589417 C-467.9638477 4.27433241 -464.96393278 4.26607683 -461.96392822 4.25262451 C-458.16945572 4.23580227 -454.37511549 4.2318899 -450.58061028 4.23244762 C-430.23191588 4.23785126 -430.23191588 4.23785126 -409.91070557 3.27606201 C-405.49808677 2.96285247 -401.10330734 2.86325544 -396.68096924 2.85931396 C-395.92686768 2.84706787 -395.17276611 2.83482178 -394.39581299 2.82220459 C-390.59657725 2.81242954 -387.20751004 3.0883377 -383.52618408 4.0512085 C-378.54153222 5.19742536 -373.81555496 5.28645674 -368.72003174 5.20697021 C-367.35145523 5.19916786 -367.35145523 5.19916786 -365.95523071 5.19120789 C-363.0719731 5.17355415 -360.18908789 5.14237836 -357.30596924 5.10931396 C-354.4014657 5.0816589 -351.49701209 5.05698287 -348.59243774 5.03813171 C-346.79276993 5.02590764 -344.99312864 5.00833644 -343.193573 4.9848175 C-342.38197723 4.97828659 -341.57038147 4.97175568 -340.73419189 4.96502686 C-340.02187408 4.95677383 -339.30955627 4.94852081 -338.57565308 4.9400177 C-336.68096924 5.04681396 -336.68096924 5.04681396 -333.68096924 6.04681396 C-331.89843482 6.15287634 -330.11232131 6.20278006 -328.32672119 6.22039795 C-326.68405022 6.24063271 -326.68405022 6.24063271 -325.00819397 6.26127625 C-323.82384262 6.27171463 -322.63949127 6.28215302 -321.41925049 6.29290771 C-318.91338774 6.3258555 -316.40752845 6.35906699 -313.90167236 6.39251709 C-309.94963028 6.43986015 -305.99760126 6.48427283 -302.04547119 6.52362061 C-298.23241314 6.56346672 -294.41964647 6.61499155 -290.60675049 6.66790771 C-289.43252029 6.67632187 -288.2582901 6.68473602 -287.04847717 6.69340515 C-280.8790068 6.78582989 -275.61146236 7.39017866 -269.68096924 9.04681396 C-266.80993049 9.33064114 -266.80993049 9.33064114 -264.00909424 9.27728271 C-262.89840576 9.27607422 -261.78771729 9.27486572 -260.64337158 9.27362061 C-259.41827881 9.26064941 -258.19318604 9.24767822 -256.93096924 9.23431396 C-254.95604492 9.22355835 -254.95604492 9.22355835 -252.94122314 9.21258545 C-247.85418477 9.17915063 -242.76767268 9.11282757 -237.68096924 9.04681396 C-236.52520386 9.03243286 -235.36943848 9.01805176 -234.1786499 9.00323486 C-225.48915471 8.89435241 -216.79993218 8.77235825 -208.11076355 8.64020157 C-206.05869727 8.60935497 -204.00661605 8.57973906 -201.95452881 8.55032349 C-198.05855163 8.49387243 -194.16273744 8.42903641 -190.26690674 8.36322021 C-188.49683762 8.33812881 -188.49683762 8.33812881 -186.69100952 8.31253052 C-185.5924765 8.2926004 -184.49394348 8.27267029 -183.36212158 8.25213623 C-182.40607025 8.23659195 -181.45001892 8.22104767 -180.46499634 8.20503235 C-177.47949569 8.03536407 -174.62299301 7.57105043 -171.68096924 7.04681396 C-170.10613058 6.93287174 -168.52869255 6.8498063 -166.95050049 6.80072021 C-166.07546875 6.76913818 -165.20043701 6.73755615 -164.29888916 6.70501709 C-163.37310059 6.67343506 -162.44731201 6.64185303 -161.49346924 6.60931396 C-154.41020092 6.33316772 -147.40756965 5.88149593 -140.36846924 5.04681396 C-129.80005229 3.81289207 -119.21616413 3.51847608 -108.58868408 3.15570068 C-104.53280498 3.00381806 -100.48260695 2.7839059 -96.43096924 2.54681396 C-93.51441538 2.3781315 -90.59773244 2.21183611 -87.68096924 2.04681396 C-86.59530922 1.98496162 -86.59530922 1.98496162 -85.48771667 1.92185974 C-69.28887125 1.02013809 -53.08883633 0.71929034 -36.86846924 0.48431396 C-36.18679436 0.47426834 -35.50511948 0.46422272 -34.80278778 0.45387268 C-25.73932639 0.32043002 -16.67574656 0.20089077 -7.61193848 0.09362793 C-5.07461364 0.06341089 -2.53729957 0.03226896 0 0 Z M-66.97416687 10.80351257 C-71.84535261 11.12323997 -76.71726188 11.3256791 -81.59503174 11.51165771 C-83.51814048 11.588889 -85.44123578 11.66645559 -87.36431885 11.74432373 C-88.33610077 11.78340851 -89.30788269 11.82249329 -90.30911255 11.86276245 C-111.29174265 12.70898836 -111.29174265 12.70898836 -132.22247314 14.36688232 C-139.40205913 15.06952076 -146.57022646 15.3882711 -153.77871704 15.63613892 C-158.27739509 15.80655296 -162.74456985 16.00756082 -167.21807861 16.52435303 C-186.56676994 18.74725265 -206.03822986 18.35117004 -225.48370361 18.30755615 C-230.68723964 18.29604117 -235.89057198 18.30282259 -241.09410095 18.31470108 C-245.13476092 18.32192985 -249.17537251 18.31962915 -253.21603394 18.3144455 C-255.13609848 18.3131181 -257.05616751 18.31472456 -258.97622681 18.3194046 C-261.64745798 18.32450013 -264.31835654 18.31672267 -266.98956299 18.30560303 C-267.76982849 18.30965149 -268.55009399 18.31369995 -269.35400391 18.31787109 C-274.13894263 18.28108914 -278.06789816 17.44020569 -282.68096924 16.04681396 C-285.45455304 15.771345 -285.45455304 15.771345 -288.18560791 15.83563232 C-289.21324753 15.83901108 -290.24088715 15.84238983 -291.29966736 15.84587097 C-292.38842667 15.8593306 -293.47718597 15.87279022 -294.59893799 15.88665771 C-295.733741 15.89185928 -296.86854401 15.89706085 -298.03773499 15.90242004 C-301.64811256 15.92016981 -305.25820113 15.95134238 -308.86846924 15.98431396 C-312.48942021 16.01195114 -316.11033083 16.0366502 -319.7313385 16.05549622 C-321.98063282 16.06773353 -324.22990579 16.08531774 -326.47911072 16.10881042 C-327.49729385 16.11534134 -328.51547699 16.12187225 -329.56451416 16.12860107 C-330.45829269 16.1368541 -331.35207123 16.14510712 -332.27293396 16.15361023 C-334.56733847 16.05185348 -336.47046486 15.62814002 -338.68096924 15.04681396 C-341.28226592 14.98665696 -343.85485908 14.9783481 -346.45440674 15.01947021 C-348.01820643 15.03213847 -349.58200865 15.04449775 -351.14581299 15.05657959 C-353.58518578 15.08114356 -356.02442237 15.10887573 -358.46368408 15.14276123 C-367.55991612 15.26100294 -376.29422315 15.1178078 -385.29669189 13.57977295 C-392.80574473 12.39724068 -399.92400697 11.93331311 -407.50128174 12.47259521 C-422.20288664 13.33045636 -436.92121755 13.23422379 -451.64239502 13.2321167 C-455.7720664 13.23201378 -459.90157086 13.24584133 -464.03120232 13.26288891 C-467.24662044 13.27401617 -470.46199761 13.27603594 -473.67743301 13.27550697 C-475.201169 13.2766792 -476.72490632 13.28105795 -478.24862289 13.28883934 C-480.36925974 13.2986867 -482.48952506 13.29574648 -484.61016846 13.28973389 C-486.41044998 13.29187141 -486.41044998 13.29187141 -488.24710083 13.29405212 C-491.95286975 13.02723716 -495.13769726 12.13206892 -498.68096924 11.04681396 C-501.20443944 10.97438119 -501.20443944 10.97438119 -503.55596924 11.35931396 C-504.40546143 11.46759521 -505.25495361 11.57587646 -506.13018799 11.68743896 C-506.9719458 11.80603271 -507.81370361 11.92462646 -508.68096924 12.04681396 C-510.24272184 12.24044071 -511.80521367 12.42822133 -513.36846924 12.60931396 C-514.48028564 12.73886475 -514.48028564 12.73886475 -515.61456299 12.87103271 C-517.68096924 13.04681396 -517.68096924 13.04681396 -520.93096924 12.92181396 C-524.49678755 13.04067458 -527.13794915 13.67211491 -530.55596924 14.60931396 C-536.84906296 16.17895397 -542.25616284 15.97167491 -548.62774658 15.41864014 C-554.14468442 14.97185033 -558.43112817 15.35936505 -563.68096924 17.04681396 C-565.66446966 19.03031439 -565.05853624 22.89450727 -565.18096924 25.60931396 C-565.22375 26.46065918 -565.26653076 27.31200439 -565.31060791 28.18914795 C-565.60226667 34.56844205 -565.73614614 40.9435735 -565.82550049 47.32806396 C-565.86817214 49.89886843 -565.91195904 52.46965225 -565.95587158 55.04043579 C-565.98031967 56.71086297 -565.99840805 58.38139953 -566.00909424 60.05197144 C-566.06758531 69.07044906 -566.54262187 77.72871938 -568.15078735 86.61437988 C-571.9150699 107.79478669 -571.0983714 129.15749479 -570.89733887 150.5894165 C-570.8208756 159.24997321 -570.78393525 167.91082239 -570.74184608 176.57159996 C-570.72426552 179.57292959 -570.69815044 182.57408297 -570.67027283 185.57533264 C-570.65705934 187.4080295 -570.64393685 189.24072702 -570.63092041 191.07342529 C-570.61610123 192.30992073 -570.61610123 192.30992073 -570.60098267 193.57139587 C-570.57631362 197.87463588 -570.95787326 201.79529647 -571.68096924 206.04681396 C-571.87242924 209.199299 -571.92361642 212.35223977 -571.97808838 215.50970459 C-571.99772738 216.44904217 -572.01736639 217.38837975 -572.03760052 218.3561821 C-572.10149039 221.47173891 -572.15892585 224.58737767 -572.21612549 227.70306396 C-572.25948816 229.90186096 -572.30313374 232.10065239 -572.3470459 234.29943848 C-572.48645677 241.38176818 -572.61557637 248.4642683 -572.74346924 255.54681396 C-572.76539211 256.74716782 -572.78731499 257.94752167 -572.80990219 259.18424988 C-573.12556369 276.4713769 -573.41877239 293.75879088 -573.68096924 311.04681396 C-573.69399078 311.90401031 -573.70701233 312.76120667 -573.72042847 313.64437866 C-574.19037591 344.98815936 -573.3232628 376.03697646 -571.32945251 407.3192749 C-570.44232631 421.48025918 -569.79800179 435.65266002 -569.15195084 449.82629013 C-569.05827003 451.87158181 -568.96320342 453.91680372 -568.86758423 455.96200562 C-568.31631113 467.78131187 -567.7755559 479.60005464 -567.4085083 491.42669678 C-567.38691713 492.12076944 -567.36532597 492.81484211 -567.34308052 493.52994728 C-567.2412689 496.84183984 -567.14461197 500.1537372 -567.05435181 503.4659729 C-566.89257501 509.03327935 -566.66533058 514.56474804 -566.18243408 520.11395264 C-565.41404449 529.50567675 -565.35223496 538.92234591 -565.18096924 548.33978271 C-565.14032429 550.41452247 -565.09930067 552.48925484 -565.05792236 554.5639801 C-564.94995594 560.01698153 -564.84611213 565.47005279 -564.74346924 570.92315674 C-564.58065689 579.54871319 -564.41290595 588.17417478 -564.24322891 596.79959869 C-564.20174135 598.90876134 -564.16044834 601.01792781 -564.11935043 603.12709808 C-563.85882749 616.43493546 -563.54164197 629.73900364 -563.12628174 643.04290771 C-562.78418223 654.00549013 -562.52162251 664.95375876 -562.55596924 675.92181396 C-562.5523674 677.25514816 -562.54845761 678.58848155 -562.54425049 679.92181396 C-562.550921 686.63234551 -562.80259608 693.22564672 -563.42706299 699.9052124 C-563.94672792 706.33506664 -564.07119363 712.78739157 -564.24346924 719.23431396 C-564.26398346 719.98383331 -564.28449768 720.73335266 -564.30563354 721.50558472 C-564.59497447 732.29082096 -564.80511318 743.07715559 -564.85720825 753.86630249 C-564.86459843 755.2562775 -564.87517366 756.64623997 -564.88925171 758.03616333 C-565.10383344 772.98966168 -565.10383344 772.98966168 -560.68096924 787.04681396 C-560.29347711 789.37176674 -559.95114085 791.70532665 -559.68096924 794.04681396 C-558.69096924 794.37681396 -557.70096924 794.70681396 -556.68096924 795.04681396 C-556.68096924 795.70681396 -556.68096924 796.36681396 -556.68096924 797.04681396 C-556.09831299 796.90243896 -555.51565674 796.75806396 -554.91534424 796.60931396 C-547.05904832 794.83052998 -539.61523467 794.9215788 -531.60284424 795.12493896 C-525.78535622 795.21443878 -520.59816377 794.77262426 -514.9241333 793.49749756 C-509.35210542 792.37799783 -504.39765775 793.1948461 -498.93096924 794.42181396 C-481.18683295 798.03679495 -462.65857834 798.19197536 -444.61334229 798.70550537 C-437.35824465 798.92177749 -430.46316795 799.33423518 -423.39971924 801.10931396 C-417.98536924 802.36306568 -412.7088081 802.19209225 -407.18096924 802.04681396 C-400.65561597 801.87531979 -394.9116599 802.06372366 -388.57330322 803.66571045 C-386.02577134 804.17876648 -384.1873673 803.69153432 -381.68096924 803.04681396 C-378.33200635 802.76045447 -374.97613531 802.63009164 -371.61846924 802.48431396 C-370.3007251 802.41953857 -370.3007251 802.41953857 -368.95635986 802.35345459 C-357.02739573 801.80689114 -345.22635731 802.13704752 -333.31646729 802.84637451 C-330.98703083 802.98469628 -328.65729706 803.11671673 -326.32745361 803.24798584 C-314.00409292 803.95710511 -314.00409292 803.95710511 -308.57159424 804.60150146 C-299.1973558 805.67445647 -289.78991438 805.32145784 -280.42829895 804.3283844 C-262.00371389 802.4400714 -243.50530986 802.78260965 -225.00909424 802.85119629 C-221.29269688 802.86210468 -217.57633588 802.86166195 -213.85992527 802.86105824 C-210.24896727 802.86133081 -206.63803264 802.86682297 -203.02708244 802.87405968 C-201.31800448 802.87721485 -199.60892392 802.87920627 -197.89984322 802.87995338 C-183.0503516 802.89359175 -183.0503516 802.89359175 -177.5088501 803.61981201 C-173.60574025 804.05520579 -170.53534497 803.69731716 -166.68096924 803.04681396 C-164.07962406 802.92640797 -161.49774941 802.84024603 -158.89581299 802.80072021 C-157.39116714 802.76924192 -155.88652868 802.73740875 -154.38189697 802.70526123 C-153.60385712 802.68988312 -152.82581726 802.674505 -152.02420044 802.65866089 C-137.49975572 802.36073206 -123.1242815 801.67779541 -108.68096924 800.04681396 C-90.67631875 798.05269634 -72.93187456 796.96332532 -54.80596924 796.92181396 C-53.51078369 796.91714111 -52.21559814 796.91246826 -50.88116455 796.90765381 C-43.92390103 796.91922255 -37.07649791 797.20639013 -30.14678955 797.80169678 C-23.88673107 798.24443408 -17.61444058 798.30872377 -11.34140015 798.43551636 C0.30477898 798.67756167 11.83558242 798.93868837 23.37762451 800.64447021 C27.90424852 801.10655374 32.33572329 801.09403488 36.88226318 801.06170654 C42.34478856 801.03803573 47.79724497 801.18469589 53.25653076 801.35931396 C54.32065186 801.38187256 55.38477295 801.40443115 56.48114014 801.42767334 C62.09188341 801.61368351 67.23657096 802.18600178 72.68743896 803.5512085 C80.84011144 805.34438842 88.73128202 805.48766591 97.02215576 805.48822021 C98.59571528 805.50004135 100.16926379 805.51341675 101.74279785 805.52824402 C105.8522458 805.56408578 109.9615963 805.58451639 114.07116699 805.59979248 C120.62994661 805.62479357 127.18851085 805.66528035 133.7470932 805.72169304 C136.0010476 805.73762908 138.2547862 805.7417627 140.50878906 805.7447052 C152.37802242 805.80363694 164.60214567 806.24757135 176.15863037 809.1552124 C181.67205854 810.52138934 187.23596242 810.33271012 192.88543701 810.31243896 C194.07773422 810.31435242 195.27003143 810.31626587 196.49845886 810.3182373 C199.01392834 810.31959324 201.52940496 810.31593832 204.04486084 810.30755615 C207.84540021 810.29691513 211.64545972 810.30743766 215.44598389 810.32025146 C227.88186789 810.32637375 240.03862516 810.15250601 252.31903076 808.04681396 C256.07784782 799.28056628 255.78528721 790.27219291 255.85806274 780.91976929 C255.89895729 775.91345851 255.99087156 770.90798804 256.07684326 765.90228271 C256.09377731 764.85517624 256.11071136 763.80806976 256.12815857 762.72923279 C256.33086661 750.93261245 256.77430055 739.14736399 257.25653076 727.35931396 C257.29931152 726.29970459 257.34209229 725.24009521 257.38616943 724.14837646 C257.9646374 709.94389466 258.72480163 695.76127504 259.63690186 681.57489014 C260.45523843 668.39592139 260.73620133 655.20633534 260.97747803 642.00579834 C261.13334063 633.71230941 261.37643176 625.44262487 261.83856201 617.16009521 C262.37198073 607.39792759 262.4718996 597.65582446 262.44940186 587.8805542 C262.44398618 585.08631082 262.44942054 582.29222477 262.45574951 579.49798584 C262.45508934 577.67181362 262.45380943 575.8456415 262.45184326 574.01947021 C262.45386749 573.2087355 262.45589172 572.39800079 262.45797729 571.56269836 C262.44025951 567.09212752 262.22031365 562.69275292 261.82002258 558.23960876 C261.2080402 550.44416165 261.17077404 542.66958075 261.17376709 534.85638428 C261.17076676 533.27256187 261.16736226 531.68874019 261.16358948 530.10491943 C261.15482317 525.83501067 261.15241418 521.56512201 261.15177369 517.29520512 C261.15105773 514.60885732 261.14891294 511.92251446 261.14627647 509.23616791 C261.13703959 499.80943993 261.13293854 490.382726 261.13372803 480.95599365 C261.13432481 472.26254296 261.1238478 463.56915512 261.10798436 454.87572026 C261.09474756 447.34464081 261.08955094 439.81358144 261.09018344 432.28249049 C261.09043423 427.81533135 261.08782379 423.34822785 261.07700539 418.88108063 C261.03206675 398.97406162 261.44754237 379.22809934 262.86712646 359.36801147 C263.71497161 346.98364031 263.57457328 334.57914457 263.50653076 322.17181396 C263.49965022 319.55129082 263.49314457 316.93076667 263.48699951 314.3102417 C263.42634927 296.34417547 263.03839713 278.40678085 262.42596436 260.45257568 C261.71057046 237.66777019 261.71057046 237.66777019 263.74481201 226.70306396 C264.70907994 220.5632355 265.12533941 214.37081434 265.62127686 208.17816162 C265.69813721 207.22989502 265.77499756 206.28162842 265.85418701 205.30462646 C265.92000977 204.46045166 265.98583252 203.61627686 266.0536499 202.746521 C266.25113856 200.73747818 266.51518073 198.7347585 266.81365967 196.73822021 C267.36140862 192.73727135 267.66242755 188.75608056 267.86981201 184.72650146 C267.91165115 183.91414032 267.9534903 183.10177917 267.99659729 182.26480103 C268.47352938 172.02692984 268.50508147 161.78525068 268.5043335 151.5380249 C268.50654147 148.15541375 268.52484274 144.77311879 268.54364014 141.39056396 C268.56771132 131.78448786 268.5433792 122.53188576 266.75775146 113.06195068 C265.84413565 106.78306623 266.19233104 100.37727511 266.31903076 94.04681396 C266.37253102 91.31766366 266.41223757 88.58879335 266.44403076 85.85931396 C266.47883545 84.07460693 266.47883545 84.07460693 266.51434326 82.25384521 C266.31861068 79.03991624 265.60057787 76.96441166 264.31903076 74.04681396 C264.05340576 70.48822021 264.05340576 70.48822021 264.06903076 66.60931396 C264.06387451 65.33185303 264.05871826 64.05439209 264.05340576 62.73822021 C264.31903076 59.04681396 264.31903076 59.04681396 265.33709717 56.42694092 C266.63945243 51.94382094 266.46369154 47.90825125 266.29559326 43.27337646 C266.27056732 42.34963226 266.24554138 41.42588806 266.21975708 40.47415161 C266.13794544 37.53964401 266.04120654 34.60584896 265.94403076 31.67181396 C265.88575149 29.67574881 265.82844909 27.67965487 265.77215576 25.68353271 C265.63242462 20.8042207 265.47930938 15.9254925 265.31903076 11.04681396 C262.61062906 11.01966963 259.90250356 10.9999055 257.19403076 10.98431396 C256.05321045 10.97174561 256.05321045 10.97174561 254.88934326 10.95892334 C250.57391836 10.94032237 246.57337039 11.22112438 242.31903076 12.04681396 C240.71666229 12.13342848 239.11122964 12.17713635 237.50653076 12.17181396 C236.63770264 12.16923584 235.76887451 12.16665771 234.87371826 12.16400146 C232.54411204 12.05713879 230.4190615 11.71979135 228.13153076 11.29681396 C223.90168488 10.75849642 220.82286105 11.70447998 216.78778076 12.99603271 C207.26466135 15.75410192 197.85191185 15.69857409 188.00653076 15.60931396 C187.08416626 15.60771271 186.16180176 15.60611145 185.21148682 15.60446167 C172.71236889 15.56649466 161.18546206 14.58184254 148.98016357 11.77362061 C133.42621515 8.29217173 117.75990394 10.87983474 102.14300537 13.02923584 C90.9792079 14.52622264 80.42489926 14.04888732 69.28831482 12.63975525 C45.10521984 9.58959309 21.07528969 9.53373121 -3.26483154 9.71386719 C-7.6138507 9.74140928 -11.96281675 9.74973596 -16.31190968 9.75743389 C-21.58730201 9.76746055 -26.86264346 9.78718525 -32.13800049 9.80853271 C-33.10920145 9.81192846 -34.08040241 9.81532421 -35.08103371 9.81882286 C-45.73867097 9.86390164 -56.33896783 10.09697512 -66.97416687 10.80351257 Z " fill="#000000" transform="translate(662.6809692382813,113.95318603515625)"/>
</svg>
